<svg xmlns="http://www.w3.org/2000/svg" viewBox="0 -0.5 16 16" shape-rendering="crispEdges">
<metadata>Made with Pixels to Svg https://codepen.io/shshaw/pen/XbxvNj</metadata>
<path stroke="#ffffff" d="M0 0h15M0 1h1M0 2h1M0 3h1M0 4h1M0 5h1M0 6h1M0 7h1M0 8h1M0 9h1M0 10h1M0 11h1M0 12h1M0 13h1M0 14h1" />
<path stroke="#c0c0c0" d="M15 0h1M1 1h7M10 1h5M1 2h6M10 2h5M1 3h5M10 3h5M1 4h4M10 4h5M1 5h3M10 5h5M1 6h3M10 6h5M1 7h6M8 7h7M1 8h6M8 8h7M1 9h6M8 9h7M1 10h6M8 10h7M1 11h6M8 11h7M1 12h6M8 12h7M1 13h3M10 13h5M1 14h14M0 15h1" />
<path stroke="#ff0000" d="M8 1h2M7 2h3M6 3h4M5 4h5M4 5h6M4 6h6" />
<path stroke="#808080" d="M15 1h1M15 2h1M15 3h1M15 4h1M15 5h1M15 6h1M15 7h1M15 8h1M15 9h1M15 10h1M15 11h1M15 12h1M15 13h1M15 14h1M1 15h15" />
<path stroke="#000000" d="M7 7h1M7 8h1M7 9h1M7 10h1M7 11h1M7 12h1M4 13h6" />
</svg>